Patient4_TMGait_0pt2_03_right_15_EMG.mot
version=1
nRows=40
nColumns=33
inDegrees=no
endheader
time	1LAddLong	2LGlutMax	3LGlutMed	4LIliopsoas	5LSemiMemb	6LBicFemLong	7LRecFem	8LVastMed	9LVastLat	10LGasMed	11LTibAnt	12lTibPost	13LPeroneusLong	14LSol	15LExtDigLong	16LFlexDigLong	17RAddLong	18RGlutMax	19RGlutMed	20RIliopsoas	21RSemiMemb	22RBicFemLong	23RRecFem	24RVastMed	25RVastLat	26RGasMed	27RTibAnt	28RTibPost	29RPeroneusLong	30RSol	31RExtDigLong	32RFlexDigLong
32.985	0.016785	-0.093384	-0.064087	0.010834	-0.011749	-0.066376	0.04303	-0.000153	0.02655	-0.081177	-0.000153	0.086975	-0.017242	0.30258	-0.091705	-0.065765	0.052948	0.10391	-0.012207	0.044098	-0.054016	-0.13397	0.093994	0.19501	-0.010376	-0.079346	0.043182	-0.031281	0.02243	0.042572	-0.005951	-0.003815
32.986	0.010529	-0.11719	-0.028534	0.007782	-0.06546	-0.004272	0.070038	0.001526	0.027466	-0.010529	0.003662	-0.13062	-0.015717	0.57037	-0.10498	-0.003052	0.045319	0.081787	-0.10651	0.027618	0.22003	-0.016785	0.17624	0.072021	-0.074158	-0.09491	0.026703	-0.035095	-0.018311	0.001678	-0.005035	-0.009308
32.987	0.013275	-0.13504	-0.044861	0.022125	-0.027008	-0.051727	0.060577	0.004883	0.007477	0.02182	0.003967	-0.042419	0.00473	0.69824	-0.12878	0.19333	0.041809	0.13092	0.084839	-0.034637	0.29175	0.11627	0.1738	-0.052338	-0.064697	-0.028076	0.038452	0.065918	-0.094452	-0.048981	0.005035	0.001678
32.988	0.011902	-0.12146	-0.036926	0.001221	0.047913	-0.078125	0.062866	0.002441	0.013733	0.072174	-0.004578	0.029144	0.13412	0.48996	-0.12161	-0.4863	0.032806	0.21866	0.054016	-0.061188	0.040436	0.12955	0.09903	-0.055847	-0.038605	0.036621	0.032654	-0.016327	-0.086212	-0.10071	-0.004272	0.003204
32.989	0.018158	-0.11978	-0.008545	0.012512	0.062103	-0.07782	0.078735	0.004272	0.014954	0.032349	-0.005646	0.009003	0.14664	0.046997	-0.13992	0.16846	0.022888	0.2977	-0.11734	-0.093689	-0.32181	0.17151	0.068512	-0.00473	0.027161	0.030212	-0.016022	0.035553	-0.12558	-0.11139	-0.001831	0.00061
32.99	0.018463	-0.15457	-0.026093	-0.011902	0.041199	-0.080566	0.056763	-0.003052	0.010681	-0.003357	0.001831	0.001984	0.019836	-0.19226	-0.15533	0.11429	0.034485	0.30136	-0.10315	-0.1593	-0.41168	0.14694	-0.006714	-0.07019	0.18204	0.010376	-0.014801	0.011444	-0.33386	-0.16144	-0.005341	-0.000153
32.991	0.015106	-0.16357	-0.034943	0.001221	0.082397	-0.009308	0.054474	-0.00473	0.015411	0.009155	-0.004578	-0.001984	-0.044556	-0.19836	-0.13962	0.03067	-0.045471	0.33157	0.33188	-0.21027	-0.34317	0.10574	-0.12772	0.062103	0.26459	0.042114	0.027466	-0.030365	0.092621	-0.034943	-0.002594	0.001678
32.992	0.02121	-0.16815	-0.043335	0.017853	0.076294	0.067444	0.051422	-0.006561	0.023346	0.040741	0.001526	0.001221	-0.112	-0.088806	-0.1471	0.006409	-0.075989	0.32593	0.44052	-0.10391	-0.14572	0.075073	-0.04776	0.1503	0.29053	0.02182	0.085449	-0.003815	0.37918	0.052643	-0.00351	0.000305
32.993	0.010834	-0.17273	-0.056458	0.029449	0.036621	0.05188	0.072174	0.001373	0.014038	0.041962	0.002136	-0.005951	-0.032043	-0.23163	-0.16083	-0.01358	-0.062103	0.30548	0.21194	0.056	-0.005188	0.20737	-0.12711	0.19989	0.27878	-0.020752	0.014648	-0.004425	0.61478	0.041504	-0.001678	0.005646
32.994	0.009003	-0.15533	-0.049438	0.011902	0.029449	0.00351	0.082092	-0.001068	0.018311	0.019226	-0.006256	0.00885	0.006409	-0.33081	-0.13641	-0.052643	-0.05249	0.28793	0.005341	0.15045	0.024261	0.028076	-0.088959	0.032196	0.15503	-0.019989	0.027161	-0.04303	0.17899	0.024872	-0.002441	0.001068
32.995	0.005188	-0.17654	-0.025024	-0.006561	0.000916	-0.022125	0.066223	0.005951	0.014954	0.032959	-0.004272	-0.000458	0.029602	-0.23148	-0.13901	-0.088043	-0.02533	0.30762	0.19577	0.13184	0.014038	-0.30487	0.00473	-0.12863	-0.052032	-0.082245	0.079346	-0.039215	-0.75729	-0.049133	-0.004883	0.006104
32.996	0.009308	-0.12283	-0.010223	-0.003357	0.014954	-0.054779	0.049744	0.008698	0.014801	0.014343	-0.003967	0.000305	0.030823	-0.45532	-0.15762	-0.01236	0.007324	0.29327	0.38437	0.099487	-0.15564	-0.44784	0.12451	-0.21927	-0.39551	-0.059357	0.004578	0.08728	0.42801	-0.11185	-0.007782	0.007935
32.997	-0.005646	-0.14587	-0.006866	-0.003052	0.011902	-0.016479	0.033417	0.001984	0.020294	0.019989	0.004425	-0.005188	0.039673	-0.4332	-0.13458	0.029602	0.030518	0.24735	0.27786	-0.000916	-0.26306	-0.41519	0.13351	-0.2446	-0.3479	0.091858	-0.13611	0.006866	0.7933	-0.068512	-0.009155	0.008087
32.998	-0.000153	-0.14038	-0.011749	-0.003662	0.006866	0.013733	0.028839	0.01358	0.018463	-0.008392	-0.004883	-0.01297	0.048218	-0.28854	-0.11078	0.04425	0.052185	0.1973	0.046997	0.007172	-0.10071	-0.35706	0.17273	-0.14984	-0.20508	0.13321	-0.099487	0.04837	-0.63171	0.11307	-0.002136	-0.006409
32.999	-0.007477	-0.11948	0.003357	-0.002747	-0.003815	0.017548	0.060272	0.005035	0.01709	-0.010376	-0.002899	0.002747	0.028534	-0.18097	-0.11078	0.023193	0.024109	0.13168	-0.17899	0.001831	0.28549	-0.31998	0.11871	-0.092773	-0.070648	-0.007324	-0.021362	0.006866	-0.99686	0.19073	-0.005341	-0.00885
33	-0.017242	-0.15518	-0.053253	-0.002289	-0.035706	0.037689	0.046539	0.002136	0.018463	-0.011292	0.000458	-0.002747	0.014954	-0.16815	-0.10773	-0.008392	-0.024872	0.10483	-0.26825	0.039673	-0.006561	-0.23865	0.1268	-0.042877	0.019684	-0.031738	0.024109	-0.027618	-0.19974	0.13718	-0.006104	-0.016022
33.001	-0.009766	-0.12299	-0.01297	-0.005188	-0.038147	0.011444	0.050812	0.005646	0.001373	-0.001678	-0.004272	0.007782	0.026398	-0.069275	-0.092773	-0.011444	-0.062561	0.13855	-0.081329	0.040436	0.008698	-0.062561	0.1091	0.016479	0.19775	0.003357	-0.002899	-0.039215	0.21805	0.056763	-0.00473	-0.013733
33.002	0.009003	-0.13412	-0.005646	0.005341	0.014038	-0.037537	0.061493	0.006104	0.009918	0.056	0.001678	0.006256	0.015259	-0.029297	-0.082703	-0.015411	-0.028992	0.14664	0.39917	-0.027771	0.12039	0.029297	0.10223	0.024414	0.49515	0.049286	0.020905	-0.050507	0.22964	0.12695	-0.002899	-0.009766
33.003	0.021362	-0.13947	-0.030823	0.007935	0.028381	0.007782	0.047913	0.004578	-0.001831	0.074463	-0.002441	-0.004425	0.027771	0.027466	-0.088043	-0.000305	-0.007019	0.060883	0.51071	-0.070953	0.16815	0.050354	0.13046	-0.1004	0.48447	-0.00061	0.074158	0.099335	-0.54977	0.13825	0.000916	-0.011902
33.004	0.015869	-0.1619	-0.034485	0.019379	0.00946	0.019836	0.06012	0.005646	-0.005493	0.075531	-0.002594	0.015106	0.067902	0.11353	-0.087585	-0.008087	0.003357	0.003815	0.19959	-0.03479	0.28992	0.088043	0.061951	-0.099182	0.3186	0.046539	-0.006256	0.03067	-0.94711	0.14557	-0.007324	-0.009308
33.005	0.015717	-0.16739	-0.033264	0.014648	-0.016479	-0.007629	0.045319	-0.007172	-0.001068	0.077667	0.000916	0.008392	0.005798	0.11246	-0.094147	-0.000153	0.00824	0.06012	0.094604	-0.079346	0.23773	0.14206	0.014191	-0.13962	0.15854	0.044098	-0.029907	-0.03067	-0.82535	0.22354	-0.004425	-0.005798
33.006	0.019836	-0.17868	-0.015259	0.005798	-0.02121	0.018768	0.037842	0.002136	0.005951	-0.088196	0.008392	0.002441	-0.022736	0.094299	-0.086365	-0.009003	0.024109	0.092163	-0.006104	-0.093689	0.12528	0.091095	-0.035248	-0.12344	-0.015869	-0.096283	-0.052795	-0.026703	0.16693	0.15015	-0.00473	-0.006409
33.007	0.014191	-0.14664	-0.008392	0.000305	0.018768	0.047913	0.032501	0.004272	0.001221	-0.097351	0.008698	0.007782	-0.027313	0.07843	-0.075378	0.003204	0.037231	0.14389	-0.082703	-0.046997	0.11429	0.046082	-0.12451	-0.049896	-0.23941	-0.083923	-0.075378	-0.010529	0.75119	-0.017548	-0.003815	-0.005341
33.008	0.007629	-0.16953	-0.008545	0.00351	0.028534	0.03952	0.039978	0.003357	0.003815	0.002136	-0.006866	0.009766	-0.032959	0.007172	-0.065002	-0.05722	0.02121	0.049286	-0.34286	0.024261	0.087585	0.045471	0.023499	0.030823	-0.45471	-0.065308	-0.001068	-0.001984	0.06424	-0.082245	-0.00885	-0.000458
33.009	-0.003815	-0.16678	-0.015869	0.002594	-0.004272	0.046082	0.039368	0.003357	0.014191	0.030518	-0.002136	0.007019	-0.065002	-0.037537	-0.071411	-0.3241	-0.023804	0.049286	-0.26886	0.041351	0.004272	0.10162	0.23163	0.079651	-0.36575	-0.041656	0.12451	-0.008545	-0.34363	-0.092773	-0.002441	-0.007019
33.01	-0.000458	-0.13138	0	0.023804	-0.001526	-0.005035	0.022736	-0.001068	0.001221	-0.007629	-0.003815	0.002594	-0.092773	0.012665	-0.071564	0.82352	-0.020905	0.00946	0.20477	-0.033417	-0.011292	0.055542	0.22659	0.20508	-0.17319	0.002747	0.17548	-0.024414	0.32135	-0.090027	-0.001526	0.001373
33.011	0.01297	-0.15595	0.007477	0.01297	0.019226	-0.019684	0.028534	0.005341	0.004578	-0.070496	-0.000153	0.011139	-0.05661	0.05127	-0.071716	-0.23041	-0.010376	0.043182	0.22751	-0.071411	0.092316	-0.00412	0.12116	0.14786	-0.089569	0.037689	0.061951	-0.007935	0.97488	-0.11261	-0.001678	-0.007172
33.012	0.003662	-0.16098	0.006104	0.012512	0.011597	-0.005188	0.03006	0.005493	0.012665	-0.14252	-0.006561	0.001526	-0.001373	0.066986	-0.076294	-0.077667	-0.022888	-0.009003	0.18387	0.010986	0.095978	-0.1178	0.10544	0.025635	-0.16373	0.040741	-0.029755	0.006561	-0.27817	-0.11429	-0.003967	-0.004272
33.013	0.004272	-0.16266	-0.004578	0.006866	-0.020447	0.003662	0.018921	-0.002899	0.013733	-0.09964	-0.001068	0.004272	0.11383	0.076447	-0.079803	0.30319	0.010071	0.008545	-0.074921	0.16083	0.068054	-0.16083	0.10712	-0.015411	-0.21286	0.04776	0.042877	-0.013428	-0.69199	-0.051575	-0.00473	-0.003967
33.014	0.001221	-0.16327	0.018463	0.009766	-0.023193	-0.023193	0.027313	0.002747	0.00885	-0.058746	-0.003815	0.001526	0.11551	0.066223	-0.0737	0.13184	0.009766	0.060272	-0.056152	0.22156	0.059509	-0.1683	-0.040283	0.018005	-0.13611	0.093079	0.05127	-0.032043	-0.69641	-0.093689	0.00061	-0.003357
33.015	0	-0.12924	0.032043	-0.006714	-0.010529	-0.11383	0.014191	-0.000305	0.018616	-0.062408	-0.00946	0.006866	0.071564	0.072479	-0.063782	-0.061188	0.006409	0.065308	-0.078735	0.11383	0.041046	-0.20172	-0.16541	0.074463	-0.014343	0.050354	0.048981	0.064087	-0.43503	-0.064697	-0.002136	0.000916
33.016	-0.031433	-0.10696	0.028229	0.011444	-0.016022	-0.068665	0.011597	0.001373	0.017548	0.06958	-0.001068	0.011902	0.017395	0.010681	-0.076599	-0.029144	0.027771	0.13138	0.57816	0.007477	0.002289	-0.19409	-0.041504	0.051117	0.11841	0.033722	-0.045624	0.010376	0.041351	-0.037842	-0.004883	-0.007324
33.017	-0.034485	-0.15945	0.031128	0.006866	-0.023041	0.05127	0.032043	0.003967	0.001984	0.06012	0.007019	0.018158	-0.010071	-0.11047	-0.084686	-0.026703	0.014496	0.099792	0.18539	0.045471	-0.05249	-0.049133	-0.086517	0.13016	0.25787	0.044708	-0.13947	-0.008087	-1.1531	-0.028381	-0.002441	-0.010681
33.018	0.009003	-0.17532	0.039978	0.010071	-0.011749	0.055695	0.047607	0.003815	-0.015717	0.018463	-0.001831	0.006866	0.008698	-0.001984	-0.069733	-0.021057	0.026245	0.10712	-0.036163	0.025482	-0.12817	-0.027466	-0.02243	0.1442	0.19882	0.042114	-0.10925	0.000458	-0.63919	0.084991	-0.004578	-0.005493
33.019	0.021667	-0.13275	0.041504	0.005646	0.023346	0.040131	0.024567	-0.001678	-0.009918	-0.005341	0.002289	-0.003815	-0.003967	0.039978	-0.083008	-0.04837	0.049133	0.012054	-0.08606	-0.006866	-0.032806	-0.057526	0.14008	0.057526	0.09613	0.011139	-0.059052	0.001221	0.94437	0.22964	-0.003204	0.002136
33.02	0.013275	-0.12253	0.043793	0.004425	-0.010071	0.036774	0.014954	0.008087	-0.001221	0.011902	0.008087	0.00824	0.027008	0.071259	-0.064392	-0.08255	0.059357	-0.005035	-0.54611	-0.033417	-0.042419	-0.024567	0.14618	0.009613	0.0383	-0.085602	-0.054016	-0.014954	1.0846	0.1442	-0.003357	-0.005493
33.021	0.01236	-0.096283	0.056915	0.002747	-0.020447	0.069733	0.027008	0.001221	0.007324	0.044556	0.007172	0.016022	0.027924	0.063324	-0.057983	-0.10803	0.048676	-0.070343	-0.65369	0.031891	-0.33493	0.043793	0.16388	0.036011	0.027618	-0.11108	-0.078125	-0.015869	0.098877	0.12024	0.000305	-0.004578
33.022	0.005646	-0.11322	0.043182	0.005646	-0.036316	0.086212	0.010681	0.005951	0.003052	0.045013	0.006104	0.013123	0.040131	0.003967	-0.05722	-0.041656	0.061493	-0.15243	-0.29556	-0.027924	-0.32684	0.103	0.21957	-0.059052	0.020752	-0.043335	0.018463	-0.026093	-0.96435	0.029297	-0.005493	-0.007477
33.023	0.001984	-0.11261	0.049744	0.003357	-0.057678	0.077209	0.000763	0.006561	-0.001831	0.008545	-0.000305	-0.005646	0.016632	-0.007782	-0.055084	0.14832	0.055847	-0.21408	-0.074768	-0.097198	-0.18097	0.20447	0.052338	-0.075226	0.081787	-0.003357	0.038605	-0.028534	-0.86151	-0.15808	-0.002289	-0.00412
33.024	0.002594	-0.14801	0.050659	0.001068	-0.027618	-0.007935	-0.009918	0.00412	-0.000305	0.004272	0.006714	-0.01236	-0.041351	-0.39764	-0.078125	0.022736	0.019836	-0.21042	0.10727	-0.10773	0.026855	0.31097	-0.10819	0.048981	0.10651	0.013733	0.007019	-0.056458	-0.39139	-0.11124	-0.003052	0.002289
